<svg width="680" height="40" viewBox="0 0 680 40" fill="none" xmlns="http://www.w3.org/2000/svg" role="img" aria-labelledby="title desc">
  <title id="title">Skill chips</title>
  <desc id="desc">Compact skill chips for TypeScript, React, Fastify, Prisma, and PostgreSQL.</desc>

  <style>
    .label {
      font: 600 13px "Segoe UI", Arial, sans-serif;
      letter-spacing: 0;
    }
  </style>

  <g transform="translate(0 4)">
    <rect width="132" height="32" rx="6" fill="#0D1117" stroke="#2F8FED" stroke-opacity="0.55"/>
    <rect x="10" y="8" width="16" height="16" rx="3" fill="#2F8FED"/>
    <text x="14" y="20.5" fill="#EAF4FF" font-size="9" font-family="Segoe UI, Arial, sans-serif" font-weight="700">TS</text>
    <text class="label" x="34" y="21" fill="#79C0FF">typescript</text>
  </g>

  <g transform="translate(146 4)">
    <rect width="100" height="32" rx="6" fill="#0D1117" stroke="#00A9B7" stroke-opacity="0.55"/>
    <g transform="translate(12 8)" stroke="#5EEAD4" stroke-width="1.1">
      <ellipse cx="8" cy="8" rx="12" ry="4"/>
      <ellipse cx="8" cy="8" rx="12" ry="4" transform="rotate(60 8 8)"/>
      <ellipse cx="8" cy="8" rx="12" ry="4" transform="rotate(120 8 8)"/>
      <circle cx="8" cy="8" r="2" fill="#5EEAD4" stroke="none"/>
    </g>
    <text class="label" x="40" y="21" fill="#67E8F9">react</text>
  </g>

  <g transform="translate(260 4)">
    <rect width="106" height="32" rx="6" fill="#0D1117" stroke="#8B949E" stroke-opacity="0.55"/>
    <path d="M16 22L25 10L22 18H30L21 30L24 22H16Z" fill="#E6EDF3"/>
    <text class="label" x="42" y="21" fill="#E6EDF3">fastify</text>
  </g>

  <g transform="translate(380 4)">
    <rect width="102" height="32" rx="6" fill="#0D1117" stroke="#A5B4FC" stroke-opacity="0.55"/>
    <path d="M20 7L32 25L17 30L12 20L20 7Z" fill="#A5B4FC"/>
    <path d="M20 13L26 24L18 26L16 20L20 13Z" fill="#0D1117" opacity="0.9"/>
    <text class="label" x="42" y="21" fill="#C4B5FD">prisma</text>
  </g>

  <g transform="translate(496 4)">
    <rect width="128" height="32" rx="6" fill="#0D1117" stroke="#7DD3FC" stroke-opacity="0.55"/>
    <g transform="translate(12 7)" fill="#7DD3FC">
      <path d="M6 7C6 3.5 9 1 13 1C18 1 22 5 22 11C22 16 18.5 20 13 20H9C6.5 20 4.5 18 4.5 15.5V9.5C4.5 8.4 5 7.5 6 7Z"/>
      <path d="M18 11C21 10.5 24 12 25 14.5C22.5 14 20.5 14.6 18.5 16L18 11Z"/>
      <circle cx="13" cy="9.5" r="1.4" fill="#0D1117"/>
      <path d="M9.5 15H19" stroke="#0D1117" stroke-width="1.4" stroke-linecap="round"/>
    </g>
    <text class="label" x="42" y="21" fill="#7DD3FC">postgres</text>
  </g>
</svg>
