<svg width="1200" height="112" viewBox="0 0 1200 112" fill="none" xmlns="http://www.w3.org/2000/svg" role="img" aria-labelledby="title desc">
  <title id="title">Spotify section placeholder</title>
  <desc id="desc">Minimal Spotify section placeholder for mi.nie's GitHub profile.</desc>

  <rect x="156" y="24" width="888" height="64" rx="32" fill="#0D1117" stroke="#30363D"/>

  <circle cx="212" cy="56" r="16" fill="#1DB954"/>
  <path d="M204 50C209.5 48.5 215.2 48.9 220.3 51.2" stroke="#0D1117" stroke-width="2.5" stroke-linecap="round"/>
  <path d="M205.5 55.5C209.8 54.4 214.2 54.7 218 56.5" stroke="#0D1117" stroke-width="2.3" stroke-linecap="round"/>
  <path d="M207.5 61C210.5 60.3 213.6 60.5 216.2 61.7" stroke="#0D1117" stroke-width="2.1" stroke-linecap="round"/>

  <text x="244" y="49" fill="#F0F6FC" font-size="20" font-weight="700" font-family="Segoe UI, Arial, sans-serif">spotify</text>
  <text x="244" y="69" fill="#8B949E" font-size="13" font-weight="500" font-family="Segoe UI, Arial, sans-serif">section ready // drop your uid and I'll wire the live widget</text>

  <rect x="888" y="43" width="8" height="26" rx="4" fill="#1DB954"/>
  <rect x="902" y="37" width="8" height="38" rx="4" fill="#1DB954"/>
  <rect x="916" y="31" width="8" height="50" rx="4" fill="#1DB954"/>
  <rect x="930" y="40" width="8" height="32" rx="4" fill="#1DB954"/>
  <rect x="944" y="46" width="8" height="20" rx="4" fill="#1DB954"/>
</svg>
