<svg width="1200" height="280" viewBox="0 0 1200 280" fill="none" xmlns="http://www.w3.org/2000/svg" role="img" aria-labelledby="title desc">
  <title id="title">Spotify Playing</title>
  <desc id="desc">Custom Spotify playing card for mi.nie.</desc>
  <defs>
    <filter id="shadow" x="0" y="0" width="1200" height="280" filterUnits="userSpaceOnUse" color-interpolation-filters="sRGB">
      <feDropShadow dx="0" dy="14" stdDeviation="18" flood-color="#000000" flood-opacity="0.14"/>
    </filter>
    <linearGradient id="bars" x1="258" y1="0" x2="918" y2="0" gradientUnits="userSpaceOnUse">
      <stop offset="0%" stop-color="#A7F3B0"/>
      <stop offset="100%" stop-color="#1DB954"/>
    </linearGradient>
    <clipPath id="album-cover">
      <rect x="72" y="118" width="126" height="126" rx="3"/>
    </clipPath>
  </defs>

  <g filter="url(#shadow)">
    <rect x="34" y="20" width="1132" height="220" rx="4" fill="#FBFBF9"/>
  </g>

  <g stroke="#151515" stroke-width="3" stroke-linecap="round" stroke-linejoin="round">
    <path d="M72 67C72 48.22 87.22 33 106 33C124.78 33 140 48.22 140 67"/>
    <rect x="67" y="60" width="13" height="31" rx="6.5" fill="#FBFBF9"/>
    <rect x="132" y="60" width="13" height="31" rx="6.5" fill="#FBFBF9"/>
  </g>

  <text x="166" y="68" fill="#151515" font-size="30" font-weight="700" font-family="Segoe UI, Arial, sans-serif">Spotify Playing</text>
  <line x1="72" y1="90" x2="1128" y2="90" stroke="#DDDCD6" stroke-width="1"/>

  <text x="72" y="110" fill="#A3A09A" font-size="12" font-weight="700" font-family="Segoe UI, Arial, sans-serif" letter-spacing="3">SPOTIFY SETUP</text>
  <rect x="72" y="118" width="126" height="126" rx="3" fill="#F0EFE8" stroke="#E2E0D8"/>
  

  <rect x="938" y="42" width="146" height="30" rx="15" fill="#1D3557"/>
  <circle cx="960" cy="57" r="5" fill="#FBFBF9"/>
  <text x="976" y="62" fill="#FBFBF9" font-size="14" font-weight="700" font-family="Segoe UI, Arial, sans-serif">SETUP</text>

  <text x="258" y="150" fill="#151515" font-size="32" font-weight="500" font-family="Segoe UI, Arial, sans-serif">waiting for the first track</text>
  <text x="258" y="188" fill="#9D9B95" font-size="20" font-weight="400" font-family="Segoe UI, Arial, sans-serif">drop your spotify secrets and this card goes live</text>

  <g fill="url(#bars)">
    <rect x="258" y="220" width="6" height="18" rx="3"/>
    <rect x="268" y="221" width="6" height="17" rx="3"/>
    <rect x="278" y="221" width="6" height="17" rx="3"/>
    <rect x="288" y="221" width="6" height="17" rx="3"/>
    <rect x="298" y="219" width="6" height="19" rx="3"/>
    <rect x="308" y="219" width="6" height="19" rx="3"/>
    <rect x="318" y="222" width="6" height="16" rx="3"/>
    <rect x="328" y="222" width="6" height="16" rx="3"/>
    <rect x="338" y="220" width="6" height="18" rx="3"/>
    <rect x="348" y="219" width="6" height="19" rx="3"/>
    <rect x="358" y="220" width="6" height="18" rx="3"/>
    <rect x="368" y="217" width="6" height="21" rx="3"/>
    <rect x="378" y="219" width="6" height="19" rx="3"/>
    <rect x="388" y="223" width="6" height="15" rx="3"/>
    <rect x="398" y="218" width="6" height="20" rx="3"/>
    <rect x="408" y="218" width="6" height="20" rx="3"/>
    <rect x="418" y="220" width="6" height="18" rx="3"/>
    <rect x="428" y="221" width="6" height="17" rx="3"/>
    <rect x="438" y="220" width="6" height="18" rx="3"/>
    <rect x="448" y="216" width="6" height="22" rx="3"/>
    <rect x="458" y="216" width="6" height="22" rx="3"/>
    <rect x="468" y="215" width="6" height="23" rx="3"/>
    <rect x="478" y="216" width="6" height="22" rx="3"/>
    <rect x="488" y="213" width="6" height="25" rx="3"/>
    <rect x="498" y="220" width="6" height="18" rx="3"/>
    <rect x="508" y="216" width="6" height="22" rx="3"/>
    <rect x="518" y="219" width="6" height="19" rx="3"/>
    <rect x="528" y="215" width="6" height="23" rx="3"/>
    <rect x="538" y="215" width="6" height="23" rx="3"/>
    <rect x="548" y="221" width="6" height="17" rx="3"/>
    <rect x="558" y="225" width="6" height="13" rx="3"/>
    <rect x="568" y="220" width="6" height="18" rx="3"/>
    <rect x="578" y="220" width="6" height="18" rx="3"/>
    <rect x="588" y="219" width="6" height="19" rx="3"/>
    <rect x="598" y="221" width="6" height="17" rx="3"/>
    <rect x="608" y="219" width="6" height="19" rx="3"/>
    <rect x="618" y="218" width="6" height="20" rx="3"/>
    <rect x="628" y="219" width="6" height="19" rx="3"/>
    <rect x="638" y="219" width="6" height="19" rx="3"/>
    <rect x="648" y="221" width="6" height="17" rx="3"/>
    <rect x="658" y="216" width="6" height="22" rx="3"/>
    <rect x="668" y="216" width="6" height="22" rx="3"/>
    <rect x="678" y="220" width="6" height="18" rx="3"/>
    <rect x="688" y="222" width="6" height="16" rx="3"/>
    <rect x="698" y="221" width="6" height="17" rx="3"/>
    <rect x="708" y="220" width="6" height="18" rx="3"/>
    <rect x="718" y="222" width="6" height="16" rx="3"/>
    <rect x="728" y="222" width="6" height="16" rx="3"/>
    <rect x="738" y="218" width="6" height="20" rx="3"/>
    <rect x="748" y="220" width="6" height="18" rx="3"/>
    <rect x="758" y="223" width="6" height="15" rx="3"/>
    <rect x="768" y="226" width="6" height="12" rx="3"/>
    <rect x="778" y="218" width="6" height="20" rx="3"/>
    <rect x="788" y="218" width="6" height="20" rx="3"/>
    <rect x="798" y="216" width="6" height="22" rx="3"/>
    <rect x="808" y="219" width="6" height="19" rx="3"/>
    <rect x="818" y="217" width="6" height="21" rx="3"/>
    <rect x="828" y="214" width="6" height="24" rx="3"/>
    <rect x="838" y="216" width="6" height="22" rx="3"/>
    <rect x="848" y="216" width="6" height="22" rx="3"/>
    <rect x="858" y="219" width="6" height="19" rx="3"/>
    <rect x="868" y="219" width="6" height="19" rx="3"/>
    <rect x="878" y="219" width="6" height="19" rx="3"/>
    <rect x="888" y="222" width="6" height="16" rx="3"/>
    <rect x="898" y="220" width="6" height="18" rx="3"/>
    <rect x="908" y="216" width="6" height="22" rx="3"/>
  </g>
</svg>
